<svg width="200" height="200" viewBox="0 0 200 200" fill="none" xmlns="http://www.w3.org/2000/svg">
<path d="M11.411 85.0613H17.6687V90.6442H22.1779V95.092H17.6687V104.264C17.6687 106.196 18.2822 106.564 20.3681 106.564H22.1779V111.104H18.1902C13.1288 111.104 11.411 110.123 11.411 105.368V95.092H8.19019V90.6442H11.411V85.0613ZM43.4049 104.724C41.5644 109.571 37.2699 111.656 33.1902 111.656C26.5337 111.656 21.9632 107.638 21.9632 100.798C21.9632 94.2331 26.9325 90.092 32.9448 90.092C39.7546 90.092 43.9264 95.2454 43.4969 102.515H28.3129C28.4969 105.429 30.7669 106.748 33.0368 106.748C35.4295 106.748 36.9325 105.89 37.638 104.693L43.4049 104.724ZM28.4049 98.7116H37.2699C37.1472 96.135 35.3681 94.8466 32.9755 94.8466C30.7055 94.8466 28.7423 96.0123 28.4049 98.7116ZM65.0307 98.1595H59.2025C58.6503 95.7669 57.1472 94.9386 55.3068 94.9386C53.0675 94.9386 50.8589 96.4724 50.8589 100.859C50.8589 105.307 53.0675 106.779 55.3068 106.779C57.6074 106.779 59.0491 105.583 59.5092 103.62H65.3374C63.9264 109.693 59.0184 111.626 54.908 111.626C48.1595 111.626 44.4479 107.301 44.4479 100.767C44.4479 94.2331 48.7117 90.0613 54.908 90.0613C59.1411 90.0613 63.8037 91.9939 65.0307 98.1595ZM72.3006 93.3742C73.1902 91.8405 75.4295 90.2147 78.6503 90.2147C83.8957 90.2147 85.5522 93.3129 85.5522 98.865V111.166H79.2945V100.46C79.2945 97.546 79.2025 95.1534 76.1656 95.1534C73.4663 95.1534 72.3313 96.9018 72.3313 100.736V111.227H66.0736V83.6196H72.3313L72.3006 93.3742ZM99.9693 96.6871C99.5399 95.1534 97.9448 94.7239 95.9816 94.7239C93.8037 94.7239 92.7301 95.2454 92.7301 96.2577C92.7301 97.2086 93.4663 97.7607 95.2454 98.0982L99.0798 98.773C103.988 99.6626 106.35 101.135 106.35 104.724C106.35 109.325 102.117 111.656 96.4417 111.656C90.9816 111.656 87.1166 109.356 86.411 104.509H92.2393C92.7914 106.472 94.3865 107.086 96.5337 107.086C98.773 107.086 100.337 106.472 100.337 105.245C100.337 104.356 99.5399 103.742 97.1166 103.344L93.4663 102.73C89.5092 102.086 86.8098 100.092 86.8098 96.4724C86.8098 92.3926 91.1043 90.1534 96.1656 90.1534C100.828 90.1534 105.092 92.0245 105.859 96.7178L99.9693 96.6871ZM109.571 85.0613H115.828V90.6442H120.337V95.092H115.828V104.264C115.828 106.196 116.442 106.564 118.528 106.564H120.307V111.104H116.35C111.288 111.104 109.571 110.123 109.571 105.368V95.092H106.35V90.6442H109.571V85.0613ZM134.632 97.546C134.632 95.092 133.466 94.2945 131.166 94.2945C129.141 94.2945 127.791 95.3374 127.515 97.3006H121.656C121.963 93.4356 125.613 90.0307 131.687 90.0307C137.607 90.0307 140.951 92.4233 140.828 98.6503L140.736 103.098V105.245C140.736 107.485 140.89 109.908 141.196 111.166H135.031L134.939 108.681C133.405 110.859 130.982 111.656 128.037 111.656C124.141 111.656 120.951 109.386 120.951 105.644C120.951 100.613 126.626 98.9877 134.571 98.3742L134.632 97.546ZM134.816 102.055C130.429 102.485 127.515 102.914 127.515 105.184C127.515 106.503 128.773 107.393 130.399 107.393C132.914 107.393 134.816 106.319 134.816 102.546V102.055ZM155.184 96.6871C154.632 96.5951 154.018 96.5337 153.466 96.5644C150.429 96.5644 148.865 97.6687 148.865 100.859V111.135H142.577V90.6442H148.62V94.5399C149.571 92.0859 151.288 90.6442 154.202 90.5215H154.663C154.847 90.5215 155 90.5215 155.184 90.5521V96.6871ZM169.049 96.6871C168.62 95.1534 167.025 94.7239 165.061 94.7239C162.883 94.7239 161.81 95.2454 161.81 96.2577C161.81 97.2086 162.546 97.7607 164.325 98.0982L168.129 98.773C173.037 99.6626 175.399 101.135 175.399 104.724C175.399 109.325 171.166 111.656 165.491 111.656C160.061 111.656 156.166 109.356 155.46 104.509H161.288C161.84 106.472 163.436 107.086 165.583 107.086C167.822 107.086 169.387 106.472 169.387 105.245C169.387 104.356 168.589 103.742 166.166 103.344L162.515 102.73C158.558 102.086 155.89 100.092 155.89 96.4724C155.89 92.3926 160.184 90.1534 165.245 90.1534C169.908 90.1534 174.172 92.0245 174.939 96.7178L169.049 96.6871Z" fill="black"/>
<path d="M175.276 116.442V111.166H192.209V116.442H175.276Z" fill="#39C463"/>
</svg>
